<?xml version="1.0" encoding="utf-8"?>
<!-- Generator: Adobe Illustrator 16.0.0, SVG Export Plug-In . SVG Version: 6.00 Build 0)  -->
<!DOCTYPE svg PUBLIC "-//W3C//DTD SVG 1.1//EN" "http://www.w3.org/Graphics/SVG/1.1/DTD/svg11.dtd">
<svg version="1.1" id="Layer_1" xmlns="http://www.w3.org/2000/svg" xmlns:xlink="http://www.w3.org/1999/xlink" x="0px" y="0px"
	 width="226px" height="78.629px" viewBox="0 28.666 226 78.629" enable-background="new 0 28.666 226 78.629" xml:space="preserve"
	>
<path fill="#FFFFFF" d="M45.48,31.49c4.13-2.18,9.45-1.75,13.4,0.63c-0.02,0.48-0.08,1.44-0.11,1.93
	c-3.56,0.78-7.31-2.08-10.72-0.12c-5.13,2.63-6.07,9.84-3.51,14.57c1.94,3.51,8.83,4.34,9.62-0.46c1.53-5.76-4.59-8.98-9.11-10.38
	c0.49-0.67,1.48-1.99,1.97-2.66c3.82,1.38,7.77,3.38,9.81,7.09c2.2,3.62,1.47,9.13-2.31,11.41c-5.22,2.67-12.54,0.29-14.72-5.3
	C37.67,42.28,39.91,34.71,45.48,31.49z"/>
<path fill="#FFFFFF" d="M17.25,45.33c5.25-8.08,15.2-12.27,24.68-11.38c-0.63,0.94-1.27,1.88-1.9,2.82
	c-7.61-0.18-15.16,3.44-19.42,9.8c-5.52,7.66-4.03,19.63,3.79,25.18c5.7,3.87,13.05,3.65,19.62,3.061
	c-3.76-2.32-8.44-2.15-12.59-1.121c-1.58,0.551-3.05-0.52-4.5-0.989c5.18-2.96,11.52-3.011,17.17-1.55
	c1.86,0.479,4.3,1.609,3.95,3.939c-1.8,3.061-5.83,3.25-9,3.32c-6.79-0.32-14.29-1.141-19.4-6.12
	C12.34,65.49,11.83,53.43,17.25,45.33z"/>
<path fill="#FFFFFF" d="M170.109,45.94c0.41-2.6,1.101-5.92,4.24-6.38c-2.119,5.24-2.42,10.87-2.189,16.46
	c0.29,6.839-2.141,14.22-7.98,18.23c-3.72,2.609-9.709,3.12-12.8-0.721c-4.851-5.93-2.12-16.059,4.63-19.339
	c4.26-1.85,11.26-0.54,12.09,4.79c0.32,2.43-0.689,6.75-3.92,6.081c0.68-2.461,2.73-5.471,0.43-7.701
	c-3.199-2.41-8.56-2.01-10.889,1.46c-3.211,4.23-3.57,11.831,1.689,14.571c4.83,1.909,9.779-1.75,11.97-5.91
	C171.1,60.89,169.061,53.08,170.109,45.94z"/>
<path fill="#FFFFFF" d="M177.88,41.93c-0.021-1.31,0.71-2.09,2.2-2.35c1.029,8.34-2.35,16.23-3.801,24.279
	c-0.689,3.42-0.34,6.92-0.52,10.381c0.27,1.42-1.33,1.49-2.18,2.039C171.58,64.48,178.029,53.61,177.88,41.93z"/>
<path fill="#FFFFFF" d="M62.23,53.24c4.26-1.93,10.73-0.81,12.05,4.29c1.17,5.4,1.08,12.48-3.89,16.041
	c-4.46,3.55-11.17,4.039-16.12,1.26c-3.39-2.359-2.33-7.17-0.73-10.311c2.21-4.45,8.21-5.29,12.42-3.479
	c2.81,1.351,3.57,4.71,4.58,7.37c-0.41,0.5-1.24,1.49-1.65,1.99c-1.77-2.961-2.44-7.99-6.95-7.75c-5.17-1.23-9.57,5.779-6.32,9.789
	c5.01,3.431,13.31,1.91,16-3.81c0.91-3.39,1.26-7.15,0.06-10.51c-0.85-2.29-3.35-3.5-5.7-3.33c-3.06-0.03-5.41,2.35-8.34,2.81
	C56.9,54.9,60.52,54.33,62.23,53.24z"/>
<path fill="#FFFFFF" d="M77.2,54.08c1.96-2.72,5.04-0.14,6.53,1.64c3.58-3.66,11.17-4.89,13.9,0.29c1.55,5.7-0.75,11.56-1.2,17.29
	c0.58,0.94,1.15,1.89,1.71,2.851c-1.44-0.08-3.56,0.85-4.02-1.16c-0.16-5.68,2.06-11.221,1.46-16.9c-0.17-2.27-2.66-3.16-4.61-3.14
	C88.3,54.67,86.3,56.72,84.2,58c0.14,6.16-1.81,12.09-3.64,17.88c-0.53,0.16-1.6,0.479-2.14,0.64c0.58-6.25,4.25-12.14,3.06-18.54
	C81.08,55.89,78.58,55.37,77.2,54.08z"/>
<path fill="#FFFFFF" d="M110.46,53.54c3.71-0.99,8.59-1.55,11.38,1.71c2.92,3.65,1.98,8.77,0.59,12.84
	c-1.33,4.11-4.949,7.52-9.36,7.891c-4.13,0.66-9.8-0.301-11.06-4.99C100.5,64.32,103.3,55.62,110.46,53.54z"/>
<path fill="#FFFFFF" d="M133.48,53.56c3.5-0.92,7.92-1.53,10.879,1.08c3.351,3.2,2.771,8.4,1.511,12.44c-1.12,4.16-4.3,8-8.72,8.74
	c-4.2,0.82-10.07,0.369-11.851-4.271C123.391,64.82,126.221,55.76,133.48,53.56z"/>
<path fill="#FFFFFF" d="M189.391,53.55c3.789-1.01,8.51-1.47,11.699,1.29c3.51,3.03,1.7,9.25-2.449,10.74
	c-3.75,1.32-8.061,1.77-11.9,0.57c-2-0.551-1.801-3-0.49-4.17c0.721,0.661,1.42,1.37,2.08,2.1c3.68,0.37,8,0.87,11.09-1.609
	c2.34-2.141,0.53-5.891-2.141-6.71c-4.84-1.64-11.199,0.38-13.1,5.43c-1.369,3.55-2.27,8.701,1.301,11.26
	c3.93,2.04,9.25,1.659,12.66-1.28c0.989-0.77,2.08-1.35,3.279-1.74c-1.02,4.61-6.16,6.541-10.41,6.641
	c-3.779,0.27-8.619-0.85-9.92-4.92C179.35,64.48,182.23,55.66,189.391,53.55z"/>
<path fill="#FFFFFF" d="M208.07,55.92c3.99-3.6,10.65-4.14,15.09-1.06c2.83,1.73,3.27,7.38-0.45,8.169
	c-0.181-2.119,0.931-5.029-1.431-6.309c-3.799-2.34-10.459-2.11-12.549,2.37c2.34,5.9,11.85,3.96,14.359,9.98
	c1.23,3.9-2.811,6.609-6.061,7.42c-4.329,1.33-9.559,0.46-12.77-2.87c-1.939-2.29-0.09-5.99,2.61-6.63
	c0.101,1.64-0.61,3.14-1.101,4.66c3.951,3.55,10.391,4.119,14.561,0.66c1.189-1.11,0.25-2.871-0.811-3.66
	c-3.42-2.7-8.1-2.98-11.58-5.57C205.57,61.35,205.99,57.71,208.07,55.92z"/>
<path fill="#FFFFFF" d="M111.48,55.67c3.12-0.77,7.73-1.03,9.31,2.47c1.28,3.73,0.25,7.93-1.5,11.34
	c-2.42,4.439-8.74,5.42-12.92,3.08c-2.97-2.11-2.57-6.301-1.79-9.42C105.31,59.64,107.91,56.49,111.48,55.67z"/>
<path fill="#FFFFFF" d="M134.43,55.71c2.631-0.61,5.78-0.99,8.11,0.68c2.239,1.78,2.08,5.03,1.69,7.59
	c-0.57,3.72-2.32,7.869-6.17,9.17c-2.961,0.89-6.631,1.02-9.15-1.041c-2.33-2.199-1.92-5.789-1.33-8.629
	C128.279,59.92,130.79,56.59,134.43,55.71z"/>
<path fill="#FFFFFF" d="M24.58,76.29c5.34-0.04,7.22,5.38,8.92,9.431c1.58,1.25,2.83,3.27,2.04,5.319l-1.71-1.83
	c-0.22,1.351-0.65,4.03-0.87,5.37c-1.52-0.41-2.3-1.689-2.79-3.1c-0.14,0.31-0.4,0.939-0.54,1.25c0.53,1.27,1.35,2.539,0.95,3.97
	c-1.15-0.83-2.29-1.671-3.42-2.5c-3,0.579-6.42,0.63-8.38-2.14c0.24-0.781,0.73-2.351,0.97-3.131c0.27,0.061,0.79,0.18,1.06,0.24
	c0.86,1.07,1.1,3.04,2.78,3.051c3.13-0.061,5.97-1.631,7.53-4.381c-0.72,0.11-2.15,0.32-2.87,0.42c-0.6,1.061-0.37,3.25-2.17,2.631
	c-0.58-0.9-0.89-1.881-0.93-2.951c-1.65,0.011-3.43,0.781-5,0.041c-0.87-1.86,1.67-2.371,2.95-2.73c2.78,0.04,5.53,0.54,8.31,0.6
	c-0.13-0.49-0.4-1.479-0.53-1.97c-0.18-0.521-0.52-1.569-0.7-2.101l-0.39-0.549C27.97,79.67,26.17,78.08,24.58,76.29z"/>
<path fill="#FFFFFF" d="M35.93,81.25c4.8,0.21,9.19-2.3,13.99-2.029c4.15,0.159,8.64,0.42,12.17,2.84
	c1.56,1.109,1.75,3.199,0.94,4.83c-1.57,1.859-4.16,2.17-6.35,2.859c-1.68,6.1-9.54,7.08-14.76,5.66
	c-3.78-0.78-5.92-4.471-5.65-8.15c1.21-0.529,2.4-1.109,3.56-1.74c0.31,0.631,0.62,1.25,0.93,1.881c0.8-0.141,1.61-0.26,2.42-0.4
	c1.72-1.21,3.63-2.12,5.67-2.66c-2.34-0.311-4.66-0.76-6.98-1.189c-1.74,0.939-3.44,1.959-4.91,3.3c-1.03-0.36-2.03-0.78-3.03-1.22
	c0.57-0.311,1.69-0.92,2.25-1.23c-0.75-0.27-2.26-0.8-3.01-1.07C31.75,80.88,34.76,81.58,35.93,81.25z"/>
<path fill="#FFFFFF" d="M46.73,81.52c4.44-0.049,9.15-0.289,13.28,1.66c1,0.66,2.39,2.131,0.61,2.95c-2.13-0.64-4.2-1.479-6.34-2.08
	c0.99,1.351,1.93,2.75,2.81,4.181c-1.04-1.131-1.95-2.381-2.85-3.631C51.81,83.391,49.27,82.46,46.73,81.52z"/>
<path fill="#FFFFFF" d="M8.12,92.109c0.18-8.239,11-12.979,17.8-8.939c0.8-0.199,2.42-0.59,3.23-0.779
	c0.52,0.649,1.05,1.299,1.56,1.959c-2.4,0.461-4.9,1.381-7.3,0.371c-4.34-1.671-10.42-0.16-12.39,4.35
	c-1.45,2.57,1.28,4.74,1.92,7.109C10.55,95.971,7.94,94.9,8.12,92.109z"/>
<path fill="#FFFFFF" d="M44.26,89.67c1.47-2.68,4.81-2.62,6.94-4.48l-1.18,1.181c3.25-1.03,4.99,3.58,2.73,5.43
	c-1.74,1.39-4.11,1.45-6.17,2.04C45.78,92.46,44.91,91.12,44.26,89.67z"/>
<path fill="#FFFFFF" d="M65.03,87.7c-0.83-0.5-0.82-1.421-0.71-2.261c3.48,1.541,7.91,2.23,10.13,5.67
	c0.36,3.601-3.08,5.91-5.7,7.67C50,110.18,24.93,110.07,6.13,98.83c-2.68-1.71-6.11-4.051-5.42-7.74c2.14-3.22,6.41-3.99,9.8-5.24
	c-1.68,2.95-5.59,3.36-7.31,6.17C2.67,95.33,6.45,96.99,8.92,98.12c11.16,4.21,23.33,4.67,35.12,4.17
	c7.4-0.42,14.96-1.25,21.83-4.19c2.62-1.18,5.61-2.949,6.11-6.039C70.49,89.55,67.5,88.83,65.03,87.7z"/>
<path fill="#FFFFFF" d="M12.33,94.24c0.24-3.99,3.98-6.24,7.07-8.04c0.61,3.63-1,7.17-4.47,8.649c4.28,3.43,9.91-0.81,14.47,1.83
	c2.08,1.221,4.5,1,6.81,1.03c-1.11-0.2-2.23-0.399-3.34-0.59c-1.24-0.41-0.69-1.771-0.33-2.591c1.23,0.49,2.48,0.941,3.75,1.351
	c0.38-1.3,1.09-1.81,2.13-1.51c1.35,1.21,0.11,2.909-0.18,4.319c0.43-0.449,1.29-1.34,1.72-1.779c2.75,0.9,5.41,2.109,8.03,3.359
	c-3.13,2.201-7.08-1.43-10.53,0.03c-1.67,1.05-3.48,1.851-5.49,1.99c0.53-1.399,1.5-2.33,2.9-2.78c-4.02,0.811-7.72-2.26-11.76-1.14
	C19.09,99.391,13.73,98.9,12.33,94.24z"/>
<path fill="#FFFFFF" d="M45.71,88.93c1.76-2.189,5.11-1.119,7.56-1.32c0.05,0.601,0.16,1.781,0.21,2.371
	c-2.46-0.01-4.92-0.021-7.39-0.041C46,89.689,45.81,89.18,45.71,88.93z"/>
<path fill="#FFFFFF" d="M38.52,89.4c1.19-0.01,2.38,0,3.57,0.01c0.3,2.55,1.57,4.59,3.89,5.73C43.26,93.55,39.73,92.66,38.52,89.4z"
	/>
<path fill="#FFFFFF" d="M60.06,89.62c1.13-0.431,2.27-0.82,3.43-1.149c0.53,1.449,2.19,2.77,1.66,4.459
	c-0.57,3.271-4.06,4.711-6.96,5.271c-5.21,0.8-10.97,1.76-15.72-1.19c6.3-0.66,13.24,0.52,19.04-2.56
	C64,93.2,61.98,90.23,60.06,89.62z"/>
</svg>
